<svg version="1.1" preserveAspectRatio="none" xmlns="http://www.w3.org/2000/svg" width="500" height="500" viewBox="0 0 500 500"><rect width="100%" height="100%" fill="#FFFFFF" fill-opacity="1"/><svg viewBox="-16.7817 288.7413 677.1542 130" width="333" height="63.929308863476" x="83.5px" y="218.0353px" xmlns="http://www.w3.org/2000/svg" xmlns:xlink="http://www.w3.org/1999/xlink" preserveAspectRatio="none"><defs></defs><style>.aD6z1nYkhcolor {fill:#42A5FF;fill-opacity:1;}.aIptOCySncolors-3 {fill:#3CB9EF;fill-opacity:1;}.aIptOCySncolors-4 {fill:#83EDFF;fill-opacity:1;}.aIptOCySncolors-5 {fill:#AEDDFF;fill-opacity:1;}.aIptOCySncolors-6 {fill:#FFF1FF;fill-opacity:1;}.aIptOCySncolors-7 {fill:#FFE4CE;fill-opacity:1;}.icon1 {fill:#42A5FF;fill-opacity:1;}.icon2 {fill:#6DDDD0;fill-opacity:1;}.icon3 {fill:#FFD4D4;fill-opacity:1;}.icon3-str {stroke:#FFD4D4;stroke-opacity:1;}</style><g opacity="1" transform="rotate(0 -16.7817 288.7413)">
<svg width="268.3491" height="130" x="-16.7817" y="288.7413" version="1.1" preserveAspectRatio="none" viewBox="10.097000122070312 30.66899871826172 79.80500793457031 38.66099548339844">
  <g transform="matrix(1 0 0 1 0 0)" class="icon1"><g><path d="M73.779,62.706H41.354v-1.125c0-2.345,1.907-4.251,4.252-4.251h23.921c2.347,0,4.254,1.906,4.254,4.251   v1.125H73.779z M45.605,59.58c-0.687,0-1.294,0.35-1.656,0.876h27.232c-0.361-0.526-0.968-0.876-1.656-0.876"></path></g><path d="M88.777,59.709h-0.75v-0.75h0.75c0.621,0,1.125-0.504,1.125-1.125s-0.504-1.125-1.125-1.125h-0.75V51.48  c0-0.621-0.504-1.125-1.125-1.125s-1.125,0.503-1.125,1.125v5.229h-1.43v-1.834c0-1.857-1.125-5.375-5.38-5.375h-8.057  c-0.067-2.976-2.499-5.378-5.49-5.378c-0.062,0-0.116,0.026-0.179,0.036c-0.059-0.01-0.111-0.034-0.174-0.034H54.336  c0.359-0.989,0.501-2.007,0.451-2.997h3.835c0.621,0,1.125-0.504,1.125-1.125s-0.504-1.125-1.125-1.125h-4.336  c-0.753-2.037-2.332-3.756-4.527-4.555c-1.921-0.699-3.999-0.608-5.852,0.255c-1.847,0.861-3.247,2.388-3.948,4.3h-5.793  c-0.621,0-1.125,0.504-1.125,1.125s0.504,1.125,1.125,1.125h5.365c-0.064,1.233,0.137,2.471,0.674,3.621  c0.825,1.771,2.273,3.113,4.074,3.841c-0.057,0.296-0.085,0.601-0.093,0.911H24.808c-0.563-5.281-5.043-9.409-10.471-9.409  c-0.001,0-0.001,0-0.001,0h-0.001c-0.621,0-1.125,0.504-1.125,1.125V52.07h-1.988c-0.621,0-1.125,0.505-1.125,1.125  c0,0.621,0.504,1.125,1.125,1.125h1.988v3.426c0,0.621,0.504,1.125,1.125,1.125c0.075,0,0.142-0.029,0.212-0.041l28.684,9.085  c0.172,0.056,4.27,1.339,8.645,1.339l23.728,0.003c0.114,0.041,0.231,0.073,0.36,0.073c0.126,0,0.243-0.032,0.356-0.07h2.648  c1.86,0,5.379-1.125,5.379-5.379v-1.922h1.43v4.475c0,0.62,0.505,1.125,1.125,1.125c0.621,0,1.125-0.505,1.125-1.125v-4.475h0.75  c0.621,0,1.125-0.504,1.125-1.125S89.398,59.709,88.777,59.709z M66.547,49.463v-2.878c1.201,0.446,2.062,1.573,2.115,2.915h-2.121  C66.541,49.486,66.547,49.477,66.547,49.463z M55.65,49.463v-3.089h8.646v3.089c0,0.014,0.01,0.023,0.01,0.037h-8.664  C55.643,49.486,55.65,49.477,55.65,49.463z M53.4,46.374v3.089c0,0.014,0.007,0.023,0.007,0.037h-1.57v-3.126H53.4z M42.244,43.798  c-0.396-0.849-0.536-1.763-0.47-2.671h2.627c0.621,0,1.125-0.504,1.125-1.125s-0.504-1.125-1.125-1.125H42.44  c0.55-0.983,1.377-1.775,2.417-2.261c1.307-0.61,2.774-0.674,4.132-0.181c1.261,0.459,2.227,1.354,2.839,2.441h-0.252  c-0.621,0-1.126,0.504-1.126,1.125s0.505,1.125,1.126,1.125h0.945c0.054,0.738-0.031,1.497-0.301,2.236  c-0.095,0.257-0.074,0.521,0.012,0.761h-2.115c-0.077,0-0.145,0.029-0.217,0.044c-0.074-0.017-0.145-0.046-0.225-0.046  c-1.881,0-3.541,0.952-4.534,2.396C43.86,46.008,42.83,45.055,42.244,43.798z M49.586,46.381V49.5h-3.149  C46.503,47.796,47.877,46.43,49.586,46.381z M74.838,67.007l-22.963-0.003c-4.017,0-7.926-1.222-7.965-1.232l-28.45-9.013V54.32  h5.17c0.621,0,1.125-0.504,1.125-1.125c0-0.62-0.504-1.125-1.125-1.125h-5.17v-1.943h2.35c0.621,0,1.125-0.504,1.125-1.125  s-0.504-1.125-1.125-1.125h-2.35v-0.75h2.35c0.621,0,1.125-0.504,1.125-1.125s-0.504-1.125-1.125-1.125h-2.35v-2.451  c4.037,0.552,7.16,4.014,7.16,8.199c0,0.62,0.504,1.124,1.125,1.124c0.026,0,0.05-0.013,0.076-0.015  c0.026,0.002,0.05,0.015,0.077,0.015h21.174h4.933h15.647h0.691h8.493L74.838,67.007L74.838,67.007z M82.098,63.881  c0,2.941-2.613,3.123-3.129,3.129h-1.881v-5.051h5.01V63.881z M82.098,59.709h-5.01v-0.75h5.01V59.709z M82.098,56.709h-5.01v-4.96  h1.881c2.941,0,3.123,2.61,3.129,3.126V56.709z M85.777,59.709h-1.43v-0.75h1.43V59.709z"></path><path d="M36.054,53.079c-2.345,0-4.252,1.907-4.252,4.251c0,2.347,1.907,4.254,4.252,4.254  c2.346,0,4.253-1.907,4.253-4.254C40.307,54.986,38.399,53.079,36.054,53.079z M36.054,59.334c-1.104,0-2.002-0.898-2.002-2.004  s0.897-2.001,2.002-2.001s2.003,0.896,2.003,2.001S37.158,59.334,36.054,59.334z"></path><path d="M36.054,55.915c-0.782,0-1.417,0.633-1.417,1.415c0,0.785,0.635,1.418,1.417,1.418  c0.783,0,1.418-0.633,1.418-1.418C37.472,56.548,36.837,55.915,36.054,55.915z"></path><path d="M28.353,40.002c0,0.621,0.504,1.125,1.125,1.125h1.424c0.621,0,1.125-0.504,1.125-1.125  s-0.504-1.125-1.125-1.125h-1.424C28.856,38.877,28.353,39.381,28.353,40.002z"></path><path d="M59.27,36.933h9.407c0.621,0,1.125-0.504,1.125-1.125s-0.504-1.125-1.125-1.125H59.27  c-0.621,0-1.125,0.504-1.125,1.125S58.648,36.933,59.27,36.933z"></path><path d="M74.523,40.419c1.119,0,2.031,0.911,2.031,2.032c0,0.621,0.504,1.125,1.125,1.125c0,0,0,0,0.002,0l0,0  c0.621,0,1.125-0.504,1.125-1.125c0-1.121,0.911-2.032,2.03-2.032c0.621,0,1.125-0.504,1.125-1.125s-0.504-1.125-1.125-1.125  c-1.254,0-2.373,0.552-3.157,1.415c-0.783-0.863-1.902-1.415-3.156-1.415c-0.621,0-1.125,0.504-1.125,1.125  S73.902,40.419,74.523,40.419z"></path><path d="M22.024,32.919c1.12,0,2.031,0.911,2.031,2.032c0,0.621,0.504,1.125,1.125,1.125l0,0  c0.001,0,0.001,0,0.001,0c0.621,0,1.125-0.504,1.125-1.125c0-1.121,0.91-2.032,2.03-2.032c0.621,0,1.125-0.504,1.125-1.125  s-0.504-1.125-1.125-1.125c-1.254,0-2.373,0.552-3.156,1.414c-0.784-0.862-1.902-1.414-3.156-1.414  c-0.621,0-1.125,0.504-1.125,1.125S21.403,32.919,22.024,32.919z"></path></g>
</svg>
</g><g opacity="1" transform="rotate(0 271.5674 303.7413)">
<svg width="388.8051" height="100" x="271.5674" y="303.7413" version="1.1" preserveAspectRatio="none" viewBox="1.25 -28.2422 130.1563 37.3438">
  <g transform="matrix(1 0 0 1 0 0)" class="aD6z1nYkhcolor"><path id="id-D6z1nYkh7" d="M1.25-5.70L1.25-5.70Q1.25-7.32 1.72-8.46Q2.19-9.59 3.10-10.31Q4.00-11.04 5.30-11.40Q6.60-11.76 8.28-11.86L8.28-11.86L12.64-12.09L12.64-13.65Q12.64-14.71 12.45-15.39Q12.27-16.07 11.84-16.48Q11.41-16.89 10.69-17.06Q9.98-17.23 8.93-17.23L8.93-17.23Q7.87-17.23 6.92-16.99Q5.98-16.76 5.27-16.48L5.27-16.48Q4.43-16.15 3.73-15.74L3.73-15.74Q3.30-16.35 3.05-16.90Q2.79-17.46 2.66-17.91L2.66-17.91Q2.48-18.42 2.42-18.89L2.42-18.89Q3.36-19.36 4.43-19.71L4.43-19.71Q5.37-20.02 6.59-20.27Q7.81-20.53 9.16-20.53L9.16-20.53Q11.39-20.53 12.85-20.14Q14.32-19.75 15.19-18.96Q16.05-18.16 16.40-16.96Q16.74-15.76 16.74-14.12L16.74-14.12L16.74-3.22L18.38-1.23L18.38 0L14.77 0L13.26-1.74L12.56-1.74Q12.46-1.64 12.04-1.30Q11.62-0.96 10.97-0.58Q10.31-0.20 9.48 0.10Q8.65 0.39 7.71 0.39L7.71 0.39Q6.25 0.39 5.06-0.05Q3.87-0.49 3.02-1.30Q2.17-2.11 1.71-3.23Q1.25-4.36 1.25-5.70ZM5.51-6.05L5.51-6.05Q5.51-5.16 5.76-4.56Q6.02-3.96 6.47-3.61Q6.93-3.26 7.59-3.13Q8.24-2.99 9.04-2.99L9.04-2.99Q9.79-2.99 10.44-3.17Q11.09-3.36 11.58-3.59L11.58-3.59Q12.15-3.85 12.64-4.20L12.64-4.20L12.64-9.45L8.71-9.20Q7.79-9.14 7.18-8.89Q6.56-8.63 6.19-8.22Q5.82-7.81 5.66-7.26Q5.51-6.70 5.51-6.05Z M24.38-23.34L24.38-23.34Q23.83-23.34 23.35-23.54Q22.87-23.73 22.51-24.06Q22.15-24.39 21.93-24.83Q21.72-25.27 21.72-25.78L21.72-25.78Q21.72-26.31 21.93-26.76Q22.15-27.21 22.51-27.54Q22.87-27.87 23.35-28.06Q23.83-28.24 24.38-28.24L24.38-28.24Q24.92-28.24 25.41-28.06Q25.90-27.87 26.26-27.54Q26.62-27.21 26.84-26.76Q27.05-26.31 27.05-25.78L27.05-25.78Q27.05-25.27 26.84-24.83Q26.62-24.39 26.26-24.06Q25.90-23.73 25.41-23.54Q24.92-23.34 24.38-23.34ZM22.13-3.36L22.13-19.96L26.19-19.96L26.19-3.28L27.34-2.46L27.34 0L26.23 0L26.19-0.04L26.19 0Q24.26 0 23.19-0.78Q22.13-1.56 22.13-3.36L22.13-3.36Z M31.11-20.18L34.71-20.18L36.72-18.07Q36.93-18.55 37.28-18.99Q37.62-19.43 38.08-19.77Q38.54-20.10 39.11-20.29Q39.69-20.49 40.37-20.49L40.37-20.49Q40.94-20.49 41.46-20.40Q41.99-20.31 42.62-20.10L42.62-20.10Q42.64-20.06 42.67-19.79Q42.70-19.51 42.70-19.10L42.70-19.10Q42.70-18.79 42.66-18.37Q42.62-17.95 42.53-17.51Q42.44-17.07 42.28-16.64Q42.11-16.21 41.86-15.90L41.86-15.90L41.48-15.80Q41.09-16.00 40.62-16.13Q40.14-16.27 39.63-16.27L39.63-16.27Q38.85-16.27 38.32-16.16Q37.79-16.05 37.46-15.94L37.46-15.94Q37.07-15.80 36.84-15.63L36.84-15.63L36.84 0L32.66 0L32.66-16.39L31.11-17.97L31.11-20.18Z M49.08 0L42.87-26.52L47.44-26.52L52.40-3.75L57.60-26.52L63.07-26.52L68.18-3.67L73.16-26.52L77.54-26.52L71.29 0L65.23 0L60.92-19.16L60.21-24.06L59.49-19.16L55.16 0L49.08 0Z M78.40-5.70L78.40-5.70Q78.40-7.32 78.87-8.46Q79.34-9.59 80.24-10.31Q81.15-11.04 82.45-11.40Q83.75-11.76 85.43-11.86L85.43-11.86L89.79-12.09L89.79-13.65Q89.79-14.71 89.60-15.39Q89.41-16.07 88.98-16.48Q88.55-16.89 87.84-17.06Q87.13-17.23 86.07-17.23L86.07-17.23Q85.02-17.23 84.07-16.99Q83.13-16.76 82.42-16.48L82.42-16.48Q81.58-16.15 80.88-15.74L80.88-15.74Q80.45-16.35 80.20-16.90Q79.94-17.46 79.80-17.91L79.80-17.91Q79.63-18.42 79.57-18.89L79.57-18.89Q80.51-19.36 81.58-19.71L81.58-19.71Q82.52-20.02 83.74-20.27Q84.96-20.53 86.31-20.53L86.31-20.53Q88.54-20.53 90-20.14Q91.46-19.75 92.33-18.96Q93.20-18.16 93.54-16.96Q93.89-15.76 93.89-14.12L93.89-14.12L93.89-3.22L95.53-1.23L95.53 0L91.91 0L90.41-1.74L89.71-1.74Q89.61-1.64 89.19-1.30Q88.77-0.96 88.12-0.58Q87.46-0.20 86.63 0.10Q85.80 0.39 84.86 0.39L84.86 0.39Q83.40 0.39 82.21-0.05Q81.02-0.49 80.17-1.30Q79.32-2.11 78.86-3.23Q78.40-4.36 78.40-5.70ZM82.66-6.05L82.66-6.05Q82.66-5.16 82.91-4.56Q83.16-3.96 83.62-3.61Q84.08-3.26 84.74-3.13Q85.39-2.99 86.19-2.99L86.19-2.99Q86.93-2.99 87.59-3.17Q88.24-3.36 88.73-3.59L88.73-3.59Q89.30-3.85 89.79-4.20L89.79-4.20L89.79-9.45L85.86-9.20Q84.94-9.14 84.33-8.89Q83.71-8.63 83.34-8.22Q82.97-7.81 82.81-7.26Q82.66-6.70 82.66-6.05Z M103.01 0L97.01-19.96L101.41-19.96L105.21-5.37L106.05-1.46L106.91-5.37L110.84-19.96L115.37-19.96L106.48 9.10L102.25 9.10L105.51 0L103.01 0Z M117.30-0.90L117.30-0.90Q117.30-1.35 117.38-1.88L117.38-1.88Q117.44-2.32 117.57-2.90Q117.70-3.48 117.95-4.10L117.95-4.10Q118.81-3.77 119.75-3.52L119.75-3.52Q120.55-3.30 121.48-3.12Q122.42-2.93 123.34-2.93L123.34-2.93Q124.16-2.93 124.86-2.99Q125.57-3.05 126.08-3.31Q126.60-3.57 126.89-4.11Q127.19-4.65 127.19-5.61L127.19-5.61Q127.19-6.76 126.47-7.42Q125.76-8.09 124.00-8.42L124.00-8.42Q122.19-8.77 120.95-9.36Q119.71-9.94 118.94-10.71Q118.16-11.48 117.82-12.44Q117.48-13.40 117.48-14.49L117.48-14.49Q117.48-16.13 118.01-17.29Q118.54-18.44 119.54-19.15Q120.55-19.86 122.04-20.19Q123.54-20.51 125.47-20.51L125.47-20.51Q126.82-20.51 127.86-20.32Q128.91-20.14 129.61-19.92L129.61-19.92Q130.43-19.67 131.04-19.34L131.04-19.34Q130.98-18.91 130.82-18.40L130.82-18.40Q130.68-17.97 130.46-17.42Q130.23-16.88 129.86-16.31L129.86-16.31Q129.34-16.62 128.65-16.86L128.65-16.86Q128.07-17.07 127.25-17.24Q126.43-17.40 125.37-17.40L125.37-17.40Q124.55-17.40 123.86-17.32Q123.16-17.25 122.67-16.97Q122.17-16.70 121.89-16.14Q121.62-15.59 121.62-14.63L121.62-14.63Q121.62-14.16 121.75-13.78Q121.88-13.40 122.26-13.09Q122.64-12.77 123.33-12.51Q124.02-12.25 125.18-11.99L125.18-11.99Q126.97-11.60 128.17-11.09Q129.38-10.59 130.09-9.86Q130.80-9.14 131.10-8.17Q131.41-7.21 131.41-5.88L131.41-5.88Q131.41-4.45 130.96-3.30Q130.51-2.15 129.55-1.33Q128.59-0.51 127.09-0.06Q125.59 0.39 123.46 0.39L123.46 0.39Q122.09 0.39 120.97 0.20Q119.84 0 119.02-0.25L119.02-0.25Q118.07-0.53 117.30-0.90Z"/></g>
</svg>
</g></svg></svg>