<svg version="1.1" preserveAspectRatio="none" xmlns="http://www.w3.org/2000/svg" width="500" height="500" viewBox="0 0 500 500"><rect width="100%" height="100%" fill="#FFFFFF" fill-opacity="1"/><svg viewBox="86.7623 167.4958 471.169 50" width="333" height="35.33763893634768" x="83.5px" y="232.3312px" xmlns="http://www.w3.org/2000/svg" xmlns:xlink="http://www.w3.org/1999/xlink" preserveAspectRatio="none"><defs></defs><style>.companyName {fill:#182145;fill-opacity:1;}.icon1 {fill:#182145;fill-opacity:1;}.icon2 {fill:#E35B34;fill-opacity:1;}.icon3 {fill:#E3D454;fill-opacity:1;}.icon3-str {stroke:#E3D454;stroke-opacity:1;}</style><g opacity="1" transform="rotate(0 86.7623 167.4958)">
<svg width="108.802" height="50" x="86.7623" y="167.4958" version="1.1" preserveAspectRatio="none" viewBox="5 29.31999969482422 90.00100708007812 41.360008239746094">
  <g transform="matrix(1 0 0 1 0 0)" class="icon1"><g display="none"><rect x="-722.374" y="-242.374" display="inline" width="1426.305" height="362.374"></rect></g><g><g><path d="M91.526,52.299c-3.847-0.114-6.862-3.22-6.862-7.07v-4.644c0-6.211-5.053-11.265-11.265-11.265H32.22v1.192    c0,3.14,2.064,5.806,4.907,6.716h30.728c7.957,0,14.43,6.474,14.43,14.431v4.644c0,1.304,0.63,2.449,1.604,3.157h7.531    c1.975,0,3.581-1.607,3.581-3.582C95,53.929,93.474,52.357,91.526,52.299z"></path><path d="M85.981,63.373c-3.847-0.115-6.862-3.221-6.862-7.071v-4.644c0-6.211-5.053-11.265-11.264-11.265H26.676v1.192    c0,3.888,3.163,7.052,7.052,7.052h0.616h1.583h14.761c0.874,0,1.583,0.709,1.583,1.583c0,0.875-0.709,1.583-1.583,1.583H35.927    v1.192c0,3.888,3.163,7.052,7.052,7.052h1.583h15.379c0.874,0,1.583,0.709,1.583,1.583c0,0.875-0.709,1.583-1.583,1.583H44.562    v0.267c0,3.888,3.163,7.052,7.052,7.052h34.26c1.975,0,3.581-1.606,3.581-3.581C89.455,65.004,87.929,63.432,85.981,63.373z"></path><path d="M37.382,67.386H17.291c-0.91,0-1.647,0.737-1.647,1.647s0.737,1.647,1.647,1.647h20.091c0.91,0,1.647-0.737,1.647-1.647    S38.292,67.386,37.382,67.386z"></path><path d="M32.087,61.632c0-0.91-0.737-1.647-1.647-1.647H11.447c-0.91,0-1.647,0.737-1.647,1.647c0,0.91,0.737,1.647,1.647,1.647    H30.44C31.35,63.279,32.087,62.542,32.087,61.632z"></path><path d="M24.573,54.23c0-0.91-0.737-1.647-1.647-1.647H6.647C5.737,52.583,5,53.321,5,54.23s0.737,1.647,1.647,1.647h16.279    C23.836,55.877,24.573,55.14,24.573,54.23z"></path></g></g></g>
</svg>
</g><g opacity="1" transform="rotate(0 215.5643 167.4958)">
<svg width="342.367" height="50" x="215.5643" y="167.4958" version="1.1" preserveAspectRatio="none" viewBox="-0.36 -28.48 198.28 28.96">
  <g transform="matrix(1 0 0 1 0 0)" class="companyName"><path id="id-D6z1nYkh7" d="M24.24 0L21.76-6L8.76-6L6.28 0L-0.36 0L12.12-28L18.52-28L31.04 0L24.24 0ZM10.84-10.92L19.72-10.92L15.28-21.64L10.84-10.92Z M33.96 0L33.96-28L40.44-28L40.44 0L33.96 0Z M71.88 0L64.92 0L59.52-7.80L59.20-7.80L53.56-7.80L53.56 0L47.08 0L47.08-28L59.20-28Q62.92-28 65.66-26.76Q68.40-25.52 69.88-23.24Q71.36-20.96 71.36-17.84L71.36-17.84Q71.36-14.72 69.86-12.46Q68.36-10.20 65.60-9L65.60-9L71.88 0ZM64.80-17.84Q64.80-20.20 63.28-21.46Q61.76-22.72 58.84-22.72L58.84-22.72L53.56-22.72L53.56-12.96L58.84-12.96Q61.76-12.96 63.28-14.24Q64.80-15.52 64.80-17.84L64.80-17.84Z M112.60-28L118.80-28L109.64 0L102.68 0L96.52-18.96L90.16 0L83.24 0L74.04-28L80.76-28L87.08-8.32L93.68-28L99.68-28L106.08-8.16L112.60-28Z M142.40 0L139.92-6L126.92-6L124.44 0L117.80 0L130.28-28L136.68-28L149.20 0L142.40 0ZM129-10.92L137.88-10.92L133.44-21.64L129-10.92Z M174.72-28L163.84-9.92L163.84 0L157.36 0L157.36-10L146.52-28L153.40-28L160.88-15.56L168.36-28L174.72-28Z M186.04 0.48Q182.72 0.48 179.62-0.42Q176.52-1.32 174.64-2.76L174.64-2.76L176.84-7.64Q178.64-6.32 181.12-5.52Q183.60-4.72 186.08-4.72L186.08-4.72Q188.84-4.72 190.16-5.54Q191.48-6.36 191.48-7.72L191.48-7.72Q191.48-8.72 190.70-9.38Q189.92-10.04 188.70-10.44Q187.48-10.84 185.40-11.32L185.40-11.32Q182.20-12.08 180.16-12.84Q178.12-13.60 176.66-15.28Q175.20-16.96 175.20-19.76L175.20-19.76Q175.20-22.20 176.52-24.18Q177.84-26.16 180.50-27.32Q183.16-28.48 187-28.48L187-28.48Q189.68-28.48 192.24-27.84Q194.80-27.20 196.72-26L196.72-26L194.72-21.08Q190.84-23.28 186.96-23.28L186.96-23.28Q184.24-23.28 182.94-22.40Q181.64-21.52 181.64-20.08L181.64-20.08Q181.64-18.64 183.14-17.94Q184.64-17.24 187.72-16.56L187.72-16.56Q190.92-15.80 192.96-15.04Q195-14.28 196.46-12.64Q197.92-11 197.92-8.20L197.92-8.20Q197.92-5.80 196.58-3.82Q195.24-1.84 192.56-0.68Q189.88 0.48 186.04 0.48L186.04 0.48Z"/></g>
</svg>
</g></svg></svg>