<svg version="1.1" preserveAspectRatio="none" xmlns="http://www.w3.org/2000/svg" width="500" height="500" viewBox="0 0 500 500"><rect width="100%" height="100%" fill="#FFFFFF" fill-opacity="1"/><svg viewBox="475.847 319.7383 415.1149 100" width="333" height="80.21875389199474" x="83.5px" y="209.8906px" xmlns="http://www.w3.org/2000/svg" xmlns:xlink="http://www.w3.org/1999/xlink" preserveAspectRatio="none"><defs></defs><style>.aD6z1nYkhcolor {fill:#288474;fill-opacity:1;}.atBXipXk0bfillColor {fill:#A2EBC1;fill-opacity:1;}.icon3-str {stroke:#5EA669;stroke-opacity:1;}.shapeStroke-str {stroke:#285A84;stroke-opacity:1;}</style><g opacity="1" transform="rotate(0 503.847 319.7383)">
<svg width="387.1149" height="100" x="503.847" y="319.7383" version="1.1" preserveAspectRatio="none" viewBox="1.76 -30 150.2 38.8">
  <g transform="matrix(1 0 0 1 0 0)" class="aD6z1nYkhcolor"><path id="id-D6z1nYkh7" d="M11.16-21.20L11.16-21.20Q15.92-21.20 18-19.34Q20.08-17.48 20.08-13.32L20.08-13.32L20.08-5.60Q20.08-2.76 20.68 0L20.68 0L15.76 0Q15.52-1.32 15.40-3.08L15.40-3.08L15.32-3.08Q14.20-1.44 12.30-0.52Q10.40 0.40 8.16 0.40L8.16 0.40Q5.24 0.40 3.50-1.22Q1.76-2.84 1.76-5.72L1.76-5.72Q1.76-9.20 4.70-11.30Q7.64-13.40 13.16-13.40L13.16-13.40L14.88-13.40L14.88-13.52Q14.88-15.64 14.04-16.48Q13.20-17.32 11.04-17.32L11.04-17.32Q7.12-17.32 3.64-15.52L3.64-15.52L2.88-19.40Q6.68-21.20 11.16-21.20ZM6.64-6.12L6.64-6.12Q6.64-4.84 7.40-4.12Q8.16-3.40 9.48-3.40L9.48-3.40Q11.76-3.40 13.32-4.88Q14.88-6.36 14.88-8.60L14.88-8.60L14.88-9.96L13.16-9.96Q10-9.96 8.32-8.90Q6.64-7.84 6.64-6.12Z M32.48-25.20L27-25.20L27-30L32.48-30L32.48-25.20ZM32.48 0L27 0L27-20.80L32.48-20.80L32.48 0Z M39.20 0L39.20-20.80L44.16-20.80L44.24-16.80L44.32-16.80Q47.88-21.20 53.88-21.20L53.88-21.20L53.88-16.96Q49.44-16.96 46.98-14.82Q44.52-12.68 44.52-9.08L44.52-9.08L44.52 0L39.20 0Z M57.40-20.80L62.88-20.80L66.04-4.40L66.12-4.40L69.28-20.80L75.80-20.80L78.96-4.40L79.04-4.40L82.20-20.80L87.52-20.80L82.20 0L75.68 0L72.52-16L72.44-16L69.28 0L62.72 0L57.40-20.80Z M99.84-21.20L99.84-21.20Q104.60-21.20 106.68-19.34Q108.76-17.48 108.76-13.32L108.76-13.32L108.76-5.60Q108.76-2.76 109.36 0L109.36 0L104.44 0Q104.20-1.32 104.08-3.08L104.08-3.08L104-3.08Q102.88-1.44 100.98-0.52Q99.08 0.40 96.84 0.40L96.84 0.40Q93.92 0.40 92.18-1.22Q90.44-2.84 90.44-5.72L90.44-5.72Q90.44-9.20 93.38-11.30Q96.32-13.40 101.84-13.40L101.84-13.40L103.56-13.40L103.56-13.52Q103.56-15.64 102.72-16.48Q101.88-17.32 99.72-17.32L99.72-17.32Q95.80-17.32 92.32-15.52L92.32-15.52L91.56-19.40Q95.36-21.20 99.84-21.20ZM95.32-6.12L95.32-6.12Q95.32-4.84 96.08-4.12Q96.84-3.40 98.16-3.40L98.16-3.40Q100.44-3.40 102-4.88Q103.56-6.36 103.56-8.60L103.56-8.60L103.56-9.96L101.84-9.96Q98.68-9.96 97-8.90Q95.32-7.84 95.32-6.12Z M117.40-20.80L121.96-5.48L122.04-5.48L127.24-20.80L132.76-20.80L121.16 8.80L115.64 8.80L119.40 0L111.68-20.80L117.40-20.80Z M151.28-19.68L150.28-15.76Q146.96-17.28 143.76-17.28L143.76-17.28Q140.08-17.28 140.08-15.12L140.08-15.12Q140.08-14.08 140.88-13.52Q141.68-12.96 143.68-12.68L143.68-12.68Q148.12-12.04 150.04-10.38Q151.96-8.72 151.96-5.80L151.96-5.80Q151.96-2.92 149.74-1.26Q147.52 0.40 143.48 0.40L143.48 0.40Q138.64 0.40 134.88-1.60L134.88-1.60L135.88-5.52Q139.28-3.56 143.20-3.56L143.20-3.56Q146.68-3.56 146.68-5.88L146.68-5.88Q146.68-6.96 145.96-7.50Q145.24-8.04 143.16-8.40L143.16-8.40Q138.76-9.12 136.86-10.76Q134.96-12.40 134.96-15.20L134.96-15.20Q134.96-17.96 137.14-19.58Q139.32-21.20 143.48-21.20Q147.64-21.20 151.28-19.68L151.28-19.68Z"/></g>
</svg>
</g><g opacity="1" transform="rotate(0 475.847 319.7383)">
<svg width="10" height="100" x="475.847" y="319.7383" version="1.1" preserveAspectRatio="none" viewBox="28.999868392944336 19.49972152709961 141.99884033203125 161.0003662109375">
  <defs><g transform="matrix(1 0 0 1 0 0)" id="id-tBXipXk0b1712037220809"><g><path d="M163.48 149.089c-3.142 5.751-7.246 11.149-12.269 15.796-26.945 24.934-76.944 17.631-101.523-5.189-14.614-13.568-20.657-31.02-20.688-48.062-.031-17.043 5.55-33.842 12.254-50.216 5.594-13.664 13.12-28.229 30.105-35.891 14.06-6.342 31.878-6.624 48.493-5.541 10.31.672 20.929 1.886 29.584 5.895 8.655 4.009 14.841 11.483 12.468 18.594-1.724 5.168-7.406 9.13-11.404 13.628-8.564 9.635-9.104 22.55-1.36 32.522 7.174 9.238 21.258 16.523 21.802 27.823.479 9.915-2.082 20.794-7.462 30.641z"></path></g></g></defs><use class="atBXipXk0bfillColor shapeStroke-str" style="stroke-width:0;" xlink:href="#id-tBXipXk0b1712037220809"></use>
</svg>
</g></svg></svg>