<svg version="1.1" preserveAspectRatio="none" xmlns="http://www.w3.org/2000/svg" width="500" height="500" viewBox="0 0 500 500"><rect width="100%" height="100%" fill="#FFFFFF" fill-opacity="1"/><svg viewBox="236.1141 358.9078 392.6103 100" width="333" height="84.81692915341243" x="83.5px" y="207.5915px" xmlns="http://www.w3.org/2000/svg" xmlns:xlink="http://www.w3.org/1999/xlink" preserveAspectRatio="none"><defs></defs><style>.companyName {fill:#D03737;fill-opacity:1;}.icon3-str {stroke:#B2B2B2;stroke-opacity:1;}</style><g opacity="1" transform="rotate(0 236.1141 358.9078)">
<svg width="392.6103" height="100" x="236.1141" y="358.9078" version="1.1" preserveAspectRatio="none" viewBox="1.24 -29.88 148.72 37.879999999999995">
  <g transform="matrix(1 0 0 1 0 0)" class="companyName"><path id="id-D6z1nYkh7" d="M20.92 0L17.20 0Q15.68 0 14.68-0.80Q13.68-1.60 13.68-3.08L13.68-3.08Q13.68-3.40 13.72-3.76Q13.76-4.12 13.80-4.28L13.80-4.28L13.92-4.88L13.68-4.88Q12.44-2.32 10.88-0.92Q9.32 0.48 6.84 0.48L6.84 0.48Q5.36 0.48 4.30-0.06Q3.24-0.60 2.56-1.58Q1.88-2.56 1.56-3.90Q1.24-5.24 1.24-6.80L1.24-6.80Q1.24-10.16 2.02-12.86Q2.80-15.56 4.12-17.48Q5.44-19.40 7.22-20.44Q9-21.48 11-21.48L11-21.48Q13.20-21.48 14.62-20.28Q16.04-19.08 16.24-17.36L16.24-17.36L16.44-17.36L17.16-21L22.76-21L19.44-4.48L21.80-4.48L20.92 0ZM9.60-4.12L9.60-4.12Q10.68-4.12 11.56-4.68Q12.44-5.24 13.08-6.04L13.08-6.04Q13.76-6.84 14.26-7.94Q14.76-9.04 15-10.20L15-10.20L15.64-13.40Q15.96-14.88 15.04-15.88Q14.12-16.88 12.36-16.88L12.36-16.88Q8.72-16.88 7.76-12.20L7.76-12.20L7.20-9.40Q7.12-8.96 7.04-8.28Q6.96-7.60 6.96-7.12L6.96-7.12Q6.96-5.72 7.66-4.92Q8.36-4.12 9.60-4.12Z M31.72-23.32L31.72-23.32Q30.24-23.32 29.54-23.88Q28.84-24.44 28.84-25.40L28.84-25.40Q28.84-25.76 28.92-26.20Q29-26.64 29.08-27L29.08-27Q29.20-27.52 29.44-28.04Q29.68-28.56 30.12-28.96Q30.56-29.36 31.24-29.62Q31.92-29.88 32.92-29.88L32.92-29.88Q34.40-29.88 35.10-29.32Q35.80-28.76 35.80-27.80L35.80-27.80Q35.80-27.44 35.72-27Q35.64-26.56 35.56-26.20L35.56-26.20Q35.44-25.68 35.20-25.16Q34.96-24.64 34.52-24.24Q34.08-23.84 33.40-23.58Q32.72-23.32 31.72-23.32ZM32.16 0L28.52 0Q26.88 0 25.90-0.88Q24.92-1.76 24.92-3.20L24.92-3.20Q24.92-3.60 25.04-4.20L25.04-4.20L28.40-21L34-21L30.68-4.48L33.04-4.48L32.16 0Z M41.04 0L35.44 0L39.64-21L45.24-21L44.20-15.76L44.48-15.76Q44.80-16.60 45.38-17.54Q45.96-18.48 46.74-19.24Q47.52-20 48.54-20.50Q49.56-21 50.76-21L50.76-21L51.76-21L50.64-15.56L49.24-15.56Q46.56-15.56 45.16-14.58Q43.76-13.60 43.24-11.04L43.24-11.04L41.04 0Z M62.72 0L55.84 0L55.28-27.92L61-27.92L60.84-16.76L60.40-5.76L60.80-5.76L64.68-16.04L69.72-27.92L76.08-27.92L76.36-16.64L76.08-5.36L76.48-5.36L79.96-15.36L84.68-27.92L90.52-27.92L78.88 0L72.16 0L71.84-11.64L71.84-21.44L71.48-21.44L67.92-12.48L62.72 0Z M107.80 0L104.08 0Q102.56 0 101.56-0.80Q100.56-1.60 100.56-3.08L100.56-3.08Q100.56-3.40 100.60-3.76Q100.64-4.12 100.68-4.28L100.68-4.28L100.80-4.88L100.56-4.88Q99.32-2.32 97.76-0.92Q96.20 0.48 93.72 0.48L93.72 0.48Q92.24 0.48 91.18-0.06Q90.12-0.60 89.44-1.58Q88.76-2.56 88.44-3.90Q88.12-5.24 88.12-6.80L88.12-6.80Q88.12-10.16 88.90-12.86Q89.68-15.56 91-17.48Q92.32-19.40 94.10-20.44Q95.88-21.48 97.88-21.48L97.88-21.48Q100.08-21.48 101.50-20.28Q102.92-19.08 103.12-17.36L103.12-17.36L103.32-17.36L104.04-21L109.64-21L106.32-4.48L108.68-4.48L107.80 0ZM96.48-4.12L96.48-4.12Q97.56-4.12 98.44-4.68Q99.32-5.24 99.96-6.04L99.96-6.04Q100.64-6.84 101.14-7.94Q101.64-9.04 101.88-10.20L101.88-10.20L102.52-13.40Q102.84-14.88 101.92-15.88Q101-16.88 99.24-16.88L99.24-16.88Q95.60-16.88 94.64-12.20L94.64-12.20L94.08-9.40Q94-8.96 93.92-8.28Q93.84-7.60 93.84-7.12L93.84-7.12Q93.84-5.72 94.54-4.92Q95.24-4.12 96.48-4.12Z M123.08-13.08L126.84-21L132.80-21L119.92 3.40Q119.32 4.56 118.64 5.42Q117.96 6.28 117.08 6.86Q116.20 7.44 115.08 7.72Q113.96 8 112.48 8L112.48 8L109.36 8L110.28 3.52L114.16 3.52L115.28 1.20L112.32-21L117.88-21L118.68-13.08L119.32-5.24L119.56-5.24L123.08-13.08Z M139.40 0.48L139.40 0.48Q136.76 0.48 134.56-0.44Q132.36-1.36 130.96-3.20L130.96-3.20L134.48-6.48Q135.36-5.32 136.54-4.66Q137.72-4 139.52-4L139.52-4Q141.48-4 142.30-4.70Q143.12-5.40 143.12-6.32L143.12-6.32Q143.12-6.92 142.70-7.40Q142.28-7.88 141.16-8.04L141.16-8.04L139.04-8.32Q136.32-8.68 134.88-10.06Q133.44-11.44 133.44-13.96L133.44-13.96Q133.44-15.44 133.96-16.80Q134.48-18.16 135.56-19.20Q136.64-20.24 138.28-20.86Q139.92-21.48 142.16-21.48L142.16-21.48Q144.60-21.48 146.58-20.66Q148.56-19.84 149.96-18.16L149.96-18.16L146.44-14.88Q145.68-15.84 144.50-16.42Q143.32-17 141.92-17L141.92-17Q140.52-17 139.70-16.38Q138.88-15.76 138.88-14.80L138.88-14.80Q138.88-14.20 139.30-13.72Q139.72-13.24 140.84-13.08L140.84-13.08L142.96-12.80Q145.68-12.44 147.12-11.06Q148.56-9.68 148.56-7.20L148.56-7.20Q148.56-5.68 147.98-4.28Q147.40-2.88 146.24-1.82Q145.08-0.76 143.36-0.14Q141.64 0.48 139.40 0.48Z"/></g>
</svg>
</g></svg></svg>