<svg version="1.1" preserveAspectRatio="none" xmlns="http://www.w3.org/2000/svg" width="500" height="500" viewBox="0 0 500 500"><rect width="100%" height="100%" fill="#FFFFFF" fill-opacity="1"/><svg viewBox="196.9379 211.1368 401.6741 110" width="333" height="91.19333310263221" x="83.5px" y="204.4033px" xmlns="http://www.w3.org/2000/svg" xmlns:xlink="http://www.w3.org/1999/xlink" preserveAspectRatio="none"><defs></defs><style>.companyName {fill:#0C0C0C;fill-opacity:1;}.icon3 {fill:#0C0C0C;fill-opacity:1;}.icon3-str {stroke:#0C0C0C;stroke-opacity:1;}</style><g opacity="1" transform="rotate(0 225.6182 221.1368)">
<svg width="372.9938" height="90" x="225.6182" y="221.1368" version="1.1" preserveAspectRatio="none" viewBox="2.16 -20.88 125.16000000000001 30.2">
  <g transform="matrix(1 0 0 1 0 0)" class="companyName"><path id="id-D6z1nYkh7" d="M17.08-4.72L17.08-4.72Q17.80-4.24 17.80-3.56L17.80-3.56Q17.80-3.20 17.60-2.82Q17.40-2.44 17.08-2.14Q16.76-1.84 16.40-1.64Q16.04-1.44 15.68-1.44L15.68-1.44Q15.36-1.56 14.92-1.86Q14.48-2.16 14.04-2.54Q13.60-2.92 13.22-3.40Q12.84-3.88 12.64-4.36L12.64-4.36L12.36-3.68Q11.60-2.24 9.96-0.96L9.96-0.96Q7.96-0.60 7.64-0.60L7.64-0.60Q6.88-0.60 5.80-0.84L5.80-0.84L3.60-2.40Q2.16-3.76 2.16-6.12L2.16-6.12Q2.16-6.96 2.42-7.98Q2.68-9 3.18-10.04Q3.68-11.08 4.40-12.08Q5.12-13.08 6.08-13.88L6.08-13.88Q7.24-14.32 8.32-14.62Q9.40-14.92 9.96-15L9.96-15Q10.72-15.84 11.76-15.84L11.76-15.84Q12.36-15.84 12.82-15.26Q13.28-14.68 13.62-13.80Q13.96-12.92 14.16-11.86Q14.36-10.80 14.44-9.84L14.44-9.84L14.96-7.72Q15.20-6.72 15.74-6Q16.28-5.28 17.08-4.72ZM11-9.16L11-9.16Q10.92-9.20 10.40-11.68L10.40-11.68Q10.20-11.68 9.80-11.68Q9.40-11.68 8.86-11.46Q8.32-11.24 7.70-10.70Q7.08-10.16 6.52-9.08L6.52-9.08Q5.68-7.52 5.68-5.96L5.68-5.96Q6.36-4.64 7.80-3.88L7.80-3.88Q8.24-4 8.54-4.16Q8.84-4.32 9.08-4.60Q9.32-4.88 9.54-5.30Q9.76-5.72 10.04-6.36L10.04-6.36Q10.56-7.28 10.78-7.98Q11-8.68 11-9.16Z M27.80-18.84L27.80-18.84Q27.88-18.52 27.88-18.24L27.88-18.24Q27.88-16.96 27.12-16.08L27.12-16.08Q25.92-15.60 24.72-15.60L24.72-15.60Q23.96-16.08 23.46-16.70Q22.96-17.32 22.96-17.92L22.96-17.92Q22.96-18.44 24.16-20.48L24.16-20.48Q24.68-20.40 25.26-20.36Q25.84-20.32 26.34-20.16Q26.84-20 27.22-19.70Q27.60-19.40 27.80-18.84ZM26.52-12.16L26.52-12.16L26.52-11.64Q26.52-11.44 26.52-11.20Q26.52-10.96 26.44-10.76L26.44-10.76L26.12-8.96L26.12-8.60Q26.12-8.36 26.08-7.96Q26.04-7.56 25.98-7.16Q25.92-6.76 25.88-6.40Q25.84-6.04 25.84-5.80L25.84-5.80Q25.84-5.60 25.86-5.48Q25.88-5.36 25.88-5.16L25.88-5.16Q25.88-4.80 25.80-4.38Q25.72-3.96 25.72-3.44L25.72-3.44Q25.72-2.96 25.84-2.44L25.84-2.44Q25.40-0.64 24-0.64L24-0.64Q22.04-0.64 22.04-4.32L22.04-4.32Q22.04-5.56 22.16-6.78Q22.28-8 22.44-9.04Q22.60-10.08 22.78-10.86Q22.96-11.64 23.08-12.08L23.08-12.08Q23.68-12.96 24.76-12.96L24.76-12.96Q25.80-12.96 26.52-12.16Z M43.16-13.96L44.56-13.60Q45.20-13.20 45.20-12.08L45.20-12.08Q45.20-11.24 44.76-10.64Q44.32-10.04 43.56-10.04L43.56-10.04Q43.08-10.04 42.58-10.30Q42.08-10.56 41.52-10.56L41.52-10.56Q41.04-10.56 40.58-10.38Q40.12-10.20 39.52-9.60L39.52-9.60L38.32-8.40Q38.32-8.12 38.34-7.84Q38.36-7.56 38.36-7.24L38.36-7.24Q38.36-6.76 38.34-6.24Q38.32-5.72 38.28-5.12L38.28-5.12L38.64-1.48Q38.52 0.36 36.76 0.36L36.76 0.36Q35.84 0.36 35.40-0.22Q34.96-0.80 34.80-1.84Q34.64-2.88 34.66-4.28Q34.68-5.68 34.64-7.36L34.64-7.36Q34.56-9.88 34.52-9.88L34.52-9.88L34.52-9.84Q34.36-10.44 34.28-10.90Q34.20-11.36 34.20-11.72L34.20-11.72Q34.20-12.44 34.72-12.90Q35.24-13.36 36.24-13.36L36.24-13.36Q36.88-13.36 37.76-12.36L37.76-12.36Q38.68-13.08 39.18-13.44Q39.68-13.80 40.02-13.96Q40.36-14.12 40.68-14.14Q41-14.16 41.52-14.16L41.52-14.16Q41.96-14.20 42.34-14.12Q42.72-14.04 43.16-13.96L43.16-13.96Z M75.52-19.72L75.52-19.72Q75.48-19.20 75.36-18.36Q75.24-17.52 75.04-16.64Q74.84-15.76 74.62-15Q74.40-14.24 74.20-13.84L74.20-13.84Q73.20-9.32 69.04-3.60L69.04-3.60Q68.64-2.64 67.86-2.08Q67.08-1.52 66.32-1.04L66.32-1.04Q66.08-1.20 65.64-1.88Q65.20-2.56 64.70-3.46Q64.20-4.36 63.72-5.32Q63.24-6.28 62.96-7.04L62.96-7.04Q61.92-8.04 60.76-11L60.76-11Q60.48-9.96 60.04-8.58Q59.60-7.20 58.96-5.40L58.96-5.40Q58.28-4.12 57.86-3.32Q57.44-2.52 57.08-2.02Q56.72-1.52 56.36-1.24Q56-0.96 55.48-0.72L55.48-0.72Q54.88-1 54.24-1.82Q53.60-2.64 53.04-3.62Q52.48-4.60 52.10-5.54Q51.72-6.48 51.68-7.04L51.68-7.04L49.16-13.28Q49.12-13.76 48.98-14.32Q48.84-14.88 48.68-15.46Q48.52-16.04 48.40-16.62Q48.28-17.20 48.28-17.72L48.28-17.72Q48.28-18.76 48.82-19.30Q49.36-19.84 50.08-19.84L50.08-19.84Q51.24-19.84 52.36-18.60L52.36-18.60Q52.32-18.44 52.32-18.08L52.32-18.08Q52.36-17.64 52.40-17.06Q52.44-16.48 52.56-15.68L52.56-15.68L52.96-13.28Q53.32-12.52 53.60-11.80Q53.88-11.08 54.16-10.28Q54.44-9.48 54.76-8.52Q55.08-7.56 55.52-6.32L55.52-6.32Q55.64-6.80 55.72-7.06Q55.80-7.32 55.86-7.54Q55.92-7.76 56.02-8.06Q56.12-8.36 56.34-8.96Q56.56-9.56 56.92-10.52Q57.28-11.48 57.88-13.04L57.88-13.04Q58.12-14.80 58.56-15.76L58.56-15.76L58.56-16Q58.56-17.52 60.56-17.52L60.56-17.52Q61.24-17.52 61.54-17.26Q61.84-17 62.02-16.56Q62.20-16.12 62.36-15.52Q62.52-14.92 62.96-14.20L62.96-14.20L63.52-13Q64.12-11.68 64.58-10.94Q65.04-10.20 65.36-9.80L65.36-9.80Q65.60-9.24 65.98-8.48Q66.36-7.72 66.88-6.72L66.88-6.72Q67.20-7.20 67.64-7.88Q68.08-8.56 68.58-9.64Q69.08-10.72 69.62-12.28Q70.16-13.84 70.76-16.08L70.76-16.08Q71.20-17.76 71.62-18.90Q72.04-20.04 72.44-20.72L72.44-20.72Q72.80-20.88 73.36-20.88L73.36-20.88Q74.84-20.88 75.52-19.72Z M93.48-4.72L93.48-4.72Q94.20-4.24 94.20-3.56L94.20-3.56Q94.20-3.20 94-2.82Q93.80-2.44 93.48-2.14Q93.16-1.84 92.80-1.64Q92.44-1.44 92.08-1.44L92.08-1.44Q91.76-1.56 91.32-1.86Q90.88-2.16 90.44-2.54Q90-2.92 89.62-3.40Q89.24-3.88 89.04-4.36L89.04-4.36L88.76-3.68Q88-2.24 86.36-0.96L86.36-0.96Q84.36-0.60 84.04-0.60L84.04-0.60Q83.28-0.60 82.20-0.84L82.20-0.84L80-2.40Q78.56-3.76 78.56-6.12L78.56-6.12Q78.56-6.96 78.82-7.98Q79.08-9 79.58-10.04Q80.08-11.08 80.80-12.08Q81.52-13.08 82.48-13.88L82.48-13.88Q83.64-14.32 84.72-14.62Q85.80-14.92 86.36-15L86.36-15Q87.12-15.84 88.16-15.84L88.16-15.84Q88.76-15.84 89.22-15.26Q89.68-14.68 90.02-13.80Q90.36-12.92 90.56-11.86Q90.76-10.80 90.84-9.84L90.84-9.84L91.36-7.72Q91.60-6.72 92.14-6Q92.68-5.28 93.48-4.72ZM87.40-9.16L87.40-9.16Q87.32-9.20 86.80-11.68L86.80-11.68Q86.60-11.68 86.20-11.68Q85.80-11.68 85.26-11.46Q84.72-11.24 84.10-10.70Q83.48-10.16 82.92-9.08L82.92-9.08Q82.08-7.52 82.08-5.96L82.08-5.96Q82.76-4.64 84.20-3.88L84.20-3.88Q84.64-4 84.94-4.16Q85.24-4.32 85.48-4.60Q85.72-4.88 85.94-5.30Q86.16-5.72 86.44-6.36L86.44-6.36Q86.96-7.28 87.18-7.98Q87.40-8.68 87.40-9.16Z M111.96-11.76L111.96-11.76Q111.92-10.88 111.88-10.52Q111.84-10.16 111.66-9.74Q111.48-9.32 111.08-8.52Q110.68-7.72 109.96-5.96L109.96-5.96Q109.64-4.08 108.36-2.24L108.36-2.24Q107.72-0.28 106.92 0.56L106.92 0.56Q106.80 0.92 106.36 1.68Q105.92 2.44 105.42 3.30Q104.92 4.16 104.46 4.98Q104 5.80 103.80 6.24L103.80 6.24Q103.72 6.44 103.44 6.94Q103.16 7.44 102.78 7.96Q102.40 8.48 101.90 8.90Q101.40 9.32 100.92 9.32L100.92 9.32Q100.20 9.32 99.58 8.86Q98.96 8.40 98.96 7.76L98.96 7.76Q98.96 7.44 99.24 6.94Q99.52 6.44 99.92 5.86Q100.32 5.28 100.76 4.66Q101.20 4.04 101.52 3.52L101.52 3.52Q101.64 3.20 101.96 2.56Q102.28 1.92 102.66 1.22Q103.04 0.52 103.38-0.14Q103.72-0.80 103.84-1.16L103.84-1.16Q103.72-1.24 103.40-1.58Q103.08-1.92 102.70-2.30Q102.32-2.68 101.92-3.04Q101.52-3.40 101.20-3.56L101.20-3.56Q100.76-4.20 100.44-4.56Q100.12-4.92 99.86-5.16Q99.60-5.40 99.32-5.64Q99.04-5.88 98.70-6.32Q98.36-6.76 97.86-7.48Q97.36-8.20 96.68-9.40L96.68-9.40Q96.64-9.52 96.64-9.76L96.64-9.76Q96.64-10.56 97.22-11.20Q97.80-11.84 98.44-11.84L98.44-11.84Q98.88-11.84 99.44-11.42Q100-11 100.72-9.92L100.72-9.92Q101.48-8.72 101.90-8.16Q102.32-7.60 102.62-7.26Q102.92-6.92 103.26-6.62Q103.60-6.32 104.24-5.64L104.24-5.64Q104.72-5.40 105.52-4.48L105.52-4.48L106.96-8.36Q107.40-9.40 107.86-10.50Q108.32-11.60 108.48-12.60L108.48-12.60Q109.36-13.20 110.24-13.20L110.24-13.20Q111.72-13.20 111.96-11.76Z M127.32-4.60L127.32-4.60Q127.20-3.36 126.50-2.34Q125.80-1.32 125.08-0.28L125.08-0.28Q124.64 0.08 123.82 0.34Q123.00 0.60 122.20 0.76Q121.40 0.92 120.82 1Q120.24 1.08 120.32 1.08L120.32 1.08Q119.92 1.08 119.30 0.94Q118.68 0.80 118.10 0.66Q117.52 0.52 117.14 0.38Q116.76 0.24 116.80 0.24L116.80 0.24Q116.44 0.20 115.88-0.02Q115.32-0.24 114.82-0.54Q114.32-0.84 113.94-1.18Q113.56-1.52 113.56-1.84L113.56-1.84Q113.56-2.16 113.72-2.50Q113.88-2.84 114.16-3.14Q114.44-3.44 114.74-3.62Q115.04-3.80 115.36-3.80L115.36-3.80L118.12-2.76Q118.88-2.52 119.62-2.42Q120.36-2.32 121.08-2.32L121.08-2.32Q121.76-2.32 122.30-2.58Q122.84-2.84 123.12-3.20L123.12-3.20L123.72-4.40Q123.64-5.12 123.14-5.52Q122.64-5.92 121.90-6.20Q121.16-6.48 120.32-6.72Q119.48-6.96 118.76-7.36L118.76-7.36L117.04-8.44Q116.20-9.52 116.16-11.76L116.16-11.76Q116.40-13.16 117.36-14L117.36-14Q117.40-14.04 117.88-14.38Q118.36-14.72 119.36-15.36L119.36-15.36Q119.52-15.36 120.38-15.44Q121.24-15.52 122.76-15.68L122.76-15.68Q123.44-15.68 126.08-14.72L126.08-14.72Q126.60-14.20 126.60-13.28L126.60-13.28Q126.60-12.56 126.26-12.06Q125.92-11.56 125.28-11.56L125.28-11.56Q124.60-11.56 123.78-11.90Q122.96-12.24 122.24-12.24L122.24-12.24Q121.24-12.24 120.42-12.06Q119.60-11.88 119.60-11.24L119.60-11.24Q119.60-10.32 120.40-10.12L120.40-10.12Q126.52-8.76 127.32-4.60Z"/></g>
</svg>
</g><g opacity="1" transform="rotate(0 196.9379 211.1368)">
<svg width="8.6803" height="110" x="196.9379" y="211.1368" version="1.1" preserveAspectRatio="none" viewBox="6.48 -25.44 2.3200000000000003 29.4">
  <g transform="matrix(1 0 0 1 0 0)" class="icon3"><path id="id-lXek8z7fT1" d="M8.68-12.24L8.68-12.24Q8.68-12 8.74-11Q8.80-10 8.80-8.16L8.80-8.16Q8.80-6.80 8.60-6.32L8.60-6.32Q8.68-5.96 8.68-5.58Q8.68-5.20 8.68-4.76L8.68-4.76Q8.68-3.84 8.58-2.86Q8.48-1.88 8.44-0.96L8.44-0.96Q8.48-0.48 8.48-0.02Q8.48 0.44 8.48 0.88L8.48 0.88Q8.48 1.36 8.48 1.90Q8.48 2.44 8.42 2.90Q8.36 3.36 8.18 3.66Q8 3.96 7.64 3.96L7.64 3.96Q7 3.96 6.84 3.72L6.84 3.72Q6.48 2.24 6.48-0.04L6.48-0.04Q6.48-1.40 6.66-3.12Q6.84-4.84 6.84-6.56L6.84-6.56Q6.84-8.08 6.60-9.52L6.60-9.52Q6.60-9.60 6.64-10.30Q6.68-11 6.72-11.88Q6.76-12.76 6.84-13.54Q6.92-14.32 7.04-14.56L7.04-14.56Q6.84-15.36 6.84-17.48L6.84-17.48Q6.84-18.12 6.84-18.82Q6.84-19.52 6.86-20.40Q6.88-21.28 6.98-22.42Q7.08-23.56 7.28-25.16L7.28-25.16Q7.32-25.44 7.84-25.44L7.84-25.44Q8.60-25.44 8.70-25.04Q8.80-24.64 8.80-23.72L8.80-23.72Q8.80-23.12 8.76-22.32Q8.72-21.52 8.64-20.48L8.64-20.48Q8.68-19.20 8.68-17.14Q8.68-15.08 8.68-12.24Z"/></g>
</svg>
</g></svg></svg>